# xmcd CD database file
#
# Track frame offsets:
#	150
#	23787
#	51912
#	70867
#	88522
#	106767
#	128255
#	144177
#	171747
#	198292
#	223030
#	242407
#
# Disc length: 3469 seconds
#
# Revision: 0
# Processed by: cddbd v1.5.2PL0 Copyright (c) Steve Scherf et al.
# Submitted via: CDex 1.50Beta7
#
DISCID=9d0d8b0c
DTITLE=Monica Hatch - If You Never Come to Me
DYEAR=1995
DGENRE=Jazz
TTITLE0=Do It the Hard Way
TTITLE1=The Gentle Rain
TTITLE2=Anthropology
TTITLE3=You Must Believe in Spring
TTITLE4=Uma Bencao
TTITLE5=If You Never Come to Me
TTITLE6=Farmer's Market
TTITLE7=How Insensitive
TTITLE8=Dancing on the Ceiling
TTITLE9=A Time for Love
TTITLE10=Samba Do Nando
TTITLE11=Danny Boy
EXTD=YEAR: 1995
EXTT0=
EXTT1=
EXTT2=
EXTT3=
EXTT4=
EXTT5=
EXTT6=
EXTT7=
EXTT8=
EXTT9=
EXTT10=
EXTT11=
PLAYORDER=
